# xmcd
#
# Track frame offsets:
#	150
#	18268
#	35898
#	51295
#	68443
#	85759
#	98272
#	115343
#	131100
#	144558
#	161590
#	179050
#	195350
#	213048
#	229710
#	246899
#	261425
#
# Disc length: 3672
#
# Revision: 1
# Processed by: cddbd v1.5.1PL0 Copyright (c) Steve Scherf et al.
# Submitted via: VisiTrax 2.9.5.180 - For more info visit www.synapsa.com
# Normalized: r0:DSETVAR1
#
DISCID=e80e5611
DTITLE=Various Artist - CDX 186 April 1998
DYEAR=1998
DGENRE=
TTITLE0=Wynonna - Always will
TTITLE1=Trace Adkins - Big time
TTITLE2=Kinleys - Dance in the boat
TTITLE3=Toby Keith - Double wide paradise
TTITLE4=Big House - Faith
TTITLE5=Gil Grand - Famous first words
TTITLE6=Shania Twain/Bryan White - From this moment on
TTITLE7=Martina McBride - Happy girl
TTITLE8=Pam Tillis - I said a prayer for ou
TTITLE9=Linda davis - I wanna remember this
TTITLE10=Clay Walker - Ordinary people
TTITLE11=Lari White - Stepping stone
TTITLE12=Trisha Yearwood - There goes my baby
TTITLE13=Mila Mason - The strong one
TTITLE14=Dwight Yoakam - Things change
TTITLE15=Smokin' Armadillos - Wakin' up behind the wheel
TTITLE16=Bullock Sisters - I don't do lonely
EXTD=
EXTT0=
EXTT1=
EXTT2=
EXTT3=
EXTT4=
EXTT5=
EXTT6=
EXTT7=
EXTT8=
EXTT9=
EXTT10=
EXTT11=
EXTT12=
EXTT13=
EXTT14=
EXTT15=
EXTT16=
PLAYORDER=
